<svg xmlns="http://www.w3.org/2000/svg" viewBox="0 0 1180 610" width="100%" height="100%">
  <defs>
    <!-- Fonts Import -->
    <style>
      @import url('https://fonts.googleapis.com/css2?family=Fira+Code:wght@400;500;600;700&amp;family=Inter:wght@400;500;600;700;800&amp;display=swap');

      text {
        font-family: 'Inter', -apple-system, BlinkMacSystemFont, 'Segoe UI', Roboto, sans-serif;
      }
      .mono {
        font-family: 'Fira Code', monospace;
      }

      .glow-box {
        filter: drop-shadow(0 0 15px rgba(124, 58, 237, 0.35)) drop-shadow(0 0 25px rgba(34, 211, 238, 0.25));
      }
      
      .pill-hover {
        transition: transform 0.3s ease, filter 0.3s ease;
        cursor: pointer;
      }
      .pill-hover:hover {
        transform: translateY(-2px) scale(1.05);
        filter: drop-shadow(0 0 8px rgba(34, 211, 238, 0.6));
      }
    </style>

    <!-- Gradients -->
    <radialGradient id="bg-glow-1" cx="20%" cy="20%" r="60%">
      <stop offset="0%" stop-color="#7C3AED" stop-opacity="0.25" />
      <stop offset="100%" stop-color="#030712" stop-opacity="0" />
    </radialGradient>

    <radialGradient id="bg-glow-2" cx="80%" cy="80%" r="65%">
      <stop offset="0%" stop-color="#22D3EE" stop-opacity="0.2" />
      <stop offset="100%" stop-color="#030712" stop-opacity="0" />
    </radialGradient>

    <radialGradient id="bg-glow-3" cx="50%" cy="50%" r="50%">
      <stop offset="0%" stop-color="#10B981" stop-opacity="0.12" />
      <stop offset="100%" stop-color="#030712" stop-opacity="0" />
    </radialGradient>

    <!-- Main Linear Accent Gradient (Dark) -->
    <linearGradient id="accent-grad" x1="0%" y1="0%" x2="100%" y2="100%">
      <stop offset="0%" stop-color="#7C3AED">
        <animate attributeName="stop-color" values="#7C3AED;#22D3EE;#10B981;#7C3AED" dur="10s" repeatCount="indefinite" />
      </stop>
      <stop offset="50%" stop-color="#22D3EE">
        <animate attributeName="stop-color" values="#22D3EE;#10B981;#7C3AED;#22D3EE" dur="10s" repeatCount="indefinite" />
      </stop>
      <stop offset="100%" stop-color="#10B981">
        <animate attributeName="stop-color" values="#10B981;#7C3AED;#22D3EE;#10B981" dur="10s" repeatCount="indefinite" />
      </stop>
    </linearGradient>

    <!-- ASCII Gradient Dynamic -->
    <linearGradient id="ascii-grad" x1="0%" y1="0%" x2="0%" y2="100%">
      <stop offset="0%" stop-color="#22D3EE">
        <animate attributeName="stop-color" values="#22D3EE;#7C3AED;#10B981;#22D3EE" dur="8s" repeatCount="indefinite" />
      </stop>
      <stop offset="100%" stop-color="#7C3AED">
        <animate attributeName="stop-color" values="#7C3AED;#10B981;#22D3EE;#7C3AED" dur="8s" repeatCount="indefinite" />
      </stop>
    </linearGradient>

    <!-- Border Shimmer Gradient -->
    <linearGradient id="border-shimmer" x1="0%" y1="0%" x2="100%" y2="0%">
      <stop offset="0%" stop-color="rgba(255,255,255,0.05)" />
      <stop offset="30%" stop-color="rgba(255,255,255,0.05)" />
      <stop offset="50%" stop-color="rgba(34, 211, 238, 0.8)" />
      <stop offset="70%" stop-color="rgba(124, 58, 237, 0.8)" />
      <stop offset="100%" stop-color="rgba(255,255,255,0.05)" />
      <animateTransform attributeName="gradientTransform" type="translate" from="-600 0" to="1200 0" dur="5s" repeatCount="indefinite" />
    </linearGradient>

    <!-- Glass Reflection Gradient -->
    <linearGradient id="glass-refl" x1="0%" y1="0%" x2="100%" y2="100%">
      <stop offset="0%" stop-color="rgba(255, 255, 255, 0.12)" />
      <stop offset="25%" stop-color="rgba(255, 255, 255, 0.03)" />
      <stop offset="100%" stop-color="rgba(255, 255, 255, 0.0)" />
    </linearGradient>

    <!-- Filters for Glow & Blur -->
    <filter id="glow-light" x="-20%" y="-20%" width="140%" height="140%">
      <feGaussianBlur stdDeviation="6" result="blur" />
      <feComposite in="SourceGraphic" in2="blur" operator="over" />
    </filter>

    <!-- Noise Pattern -->
    <pattern id="noise" width="100" height="100" patternUnits="userSpaceOnUse">
      <filter id="noiseFilter">
        <feTurbulence type="fractalNoise" baseFrequency="0.8" numOctaves="3" stitchTiles="stitch" />
        <feColorMatrix type="matrix" values="1 0 0 0 0  0 1 0 0 0  0 0 1 0 0  0 0 0 0.04 0" />
      </filter>
      <rect width="100" height="100" filter="url(#noiseFilter)" />
    </pattern>

    <!-- Clip Paths -->
    <clipPath id="canvas-clip">
      <rect width="1180" height="610" rx="24" ry="24" />
    </clipPath>

    <clipPath id="ascii-clip">
      <rect x="35" y="70" width="400" height="490" rx="16" />
    </clipPath>

    <clipPath id="terminal-clip">
      <rect x="460" y="70" width="685" height="490" rx="16" />
    </clipPath>
  </defs>

  <!-- ROOT CONTAINER WITH CLIP -->
  <g clip-path="url(#canvas-clip)">
    <!-- Canvas Background -->
    <rect width="1180" height="610" fill="#030712" />

    <!-- Animated Radial Glow Backgrounds -->
    <rect width="1180" height="610" fill="url(#bg-glow-1)">
      <animateTransform attributeName="transform" type="translate" values="0,0; 30,-20; -20,30; 0,0" dur="15s" repeatCount="indefinite" />
    </rect>
    <rect width="1180" height="610" fill="url(#bg-glow-2)">
      <animateTransform attributeName="transform" type="translate" values="0,0; -40,30; 20,-20; 0,0" dur="18s" repeatCount="indefinite" />
    </rect>
    <rect width="1180" height="610" fill="url(#bg-glow-3)">
      <animateTransform attributeName="transform" type="translate" values="0,0; 20,40; -30,-10; 0,0" dur="12s" repeatCount="indefinite" />
    </rect>

    <!-- Noise Overlay -->
    <rect width="1180" height="610" fill="url(#noise)" opacity="0.7" />

    <!-- Floating Background Particles -->
    <g opacity="0.6">
      <circle cx="150" cy="120" r="1.5" fill="#22D3EE">
        <animate attributeName="cy" values="120;100;120" dur="4s" repeatCount="indefinite" />
        <animate attributeName="opacity" values="0.2;0.8;0.2" dur="4s" repeatCount="indefinite" />
      </circle>
      <circle cx="380" cy="450" r="2" fill="#7C3AED">
        <animate attributeName="cy" values="450;420;450" dur="6s" repeatCount="indefinite" />
        <animate attributeName="opacity" values="0.3;0.9;0.3" dur="6s" repeatCount="indefinite" />
      </circle>
      <circle cx="720" cy="100" r="1.5" fill="#10B981">
        <animate attributeName="cy" values="100;130;100" dur="5s" repeatCount="indefinite" />
        <animate attributeName="opacity" values="0.2;0.7;0.2" dur="5s" repeatCount="indefinite" />
      </circle>
      <circle cx="1050" cy="480" r="2" fill="#22D3EE">
        <animate attributeName="cy" values="480;450;480" dur="7s" repeatCount="indefinite" />
        <animate attributeName="opacity" values="0.4;1;0.4" dur="7s" repeatCount="indefinite" />
      </circle>
    </g>

    <!-- Outer Frame Border Shimmer -->
    <rect x="1" y="1" width="1178" height="608" rx="23" fill="none" stroke="url(#border-shimmer)" stroke-width="2" />
    <rect x="1" y="1" width="1178" height="608" rx="23" fill="none" stroke="rgba(255,255,255,0.08)" stroke-width="1" />

    <!-- ==================== LEFT SIDE: ASCII PORTRAIT PANEL ==================== -->
    <g transform="translate(0,0)">
      <!-- Subtle Floating Animation for ASCII Card -->
      <g>
        <animateTransform attributeName="transform" type="translate" values="0,0; 0,-6; 0,0" dur="6s" repeatCount="indefinite" ease="easeInOut" />

        <!-- Card Glass Background -->
        <rect x="35" y="70" width="400" height="490" rx="16" fill="#0F172A" fill-opacity="0.65" stroke="rgba(255,255,255,0.08)" stroke-width="1" />
        <rect x="35" y="70" width="400" height="490" rx="16" fill="url(#glass-refl)" />

        <!-- Card Header Bar -->
        <path d="M 35 86 C 35 77.163 42.163 70 51 70 L 419 70 C 427.837 70 435 77.163 435 86 L 435 105 L 35 105 Z" fill="rgba(255,255,255,0.03)" />
        <line x1="35" y1="105" x2="435" y2="105" stroke="rgba(255,255,255,0.06)" stroke-width="1" />
        
        <!-- Terminal Window Controls -->
        <circle cx="58" cy="87" r="5" fill="#EF4444" opacity="0.8" />
        <circle cx="74" cy="87" r="5" fill="#F59E0B" opacity="0.8" />
        <circle cx="90" cy="87" r="5" fill="#10B981" opacity="0.8" />
        <text x="235" y="91" fill="#94A3B8" font-size="11" font-weight="500" text-anchor="middle" class="mono">safay_neural_core.ascii</text>

        <!-- ASCII Content Container with Scanline -->
        <g clip-path="url(#ascii-clip)">
          <!-- ASCII Lines Group with Line-by-Line Reveal Animation -->
          <g transform="translate(55, 125)" fill="url(#ascii-grad)" class="mono" font-size="9.5" font-weight="700" letter-spacing="1.2">
            <g filter="url(#glow-light)">
              <text x="0" y="15" opacity="0">
                <animate attributeName="opacity" values="0;1" dur="0.1s" begin="0.2s" fill="freeze" />
                `.......::::::::::::::::.......`
              </text>
              <text x="0" y="30" opacity="0">
                <animate attributeName="opacity" values="0;1" dur="0.1s" begin="0.35s" fill="freeze" />
                .::-========================-::.
              </text>
              <text x="0" y="45" opacity="0">
                <animate attributeName="opacity" values="0;1" dur="0.1s" begin="0.5s" fill="freeze" />
                :-+888888888888888888888888+-:
              </text>
              <text x="0" y="60" opacity="0">
                <animate attributeName="opacity" values="0;1" dur="0.1s" begin="0.65s" fill="freeze" />
                :=888888888888888888888888888=:
              </text>
              <text x="0" y="75" opacity="0">
                <animate attributeName="opacity" values="0;1" dur="0.1s" begin="0.8s" fill="freeze" />
                :8888888PP"""""""PP88888888888:
              </text>
              <text x="0" y="90" opacity="0">
                <animate attributeName="opacity" values="0;1" dur="0.1s" begin="0.95s" fill="freeze" />
                :88888P'             'Y8888888:
              </text>
              <text x="0" y="105" opacity="0">
                <animate attributeName="opacity" values="0;1" dur="0.1s" begin="1.1s" fill="freeze" />
                :88888|   (o)   (o)   |8888888:
              </text>
              <text x="0" y="120" opacity="0">
                <animate attributeName="opacity" values="0;1" dur="0.1s" begin="1.25s" fill="freeze" />
                :88888|       &lt;       |8888888:
              </text>
              <text x="0" y="135" opacity="0">
                <animate attributeName="opacity" values="0;1" dur="0.1s" begin="1.4s" fill="freeze" />
                :88888\    .-----.    /8888888:
              </text>
              <text x="0" y="150" opacity="0">
                <animate attributeName="opacity" values="0;1" dur="0.1s" begin="1.55s" fill="freeze" />
                :888888\  '-------'  /88888888:
              </text>
              <text x="0" y="165" opacity="0">
                <animate attributeName="opacity" values="0;1" dur="0.1s" begin="1.7s" fill="freeze" />
                :=888888'-----------'88888888=:
              </text>
              <text x="0" y="180" opacity="0">
                <animate attributeName="opacity" values="0;1" dur="0.1s" begin="1.85s" fill="freeze" />
                :-+888888888888888888888888+-:
              </text>
              <text x="0" y="195" opacity="0">
                <animate attributeName="opacity" values="0;1" dur="0.1s" begin="2.0s" fill="freeze" />
                .::-========================-::.
              </text>
              <text x="0" y="210" opacity="0">
                <animate attributeName="opacity" values="0;1" dur="0.1s" begin="2.15s" fill="freeze" />
                `.......::::::::::::::::.......`
              </text>
              <text x="0" y="235" opacity="0">
                <animate attributeName="opacity" values="0;1" dur="0.1s" begin="2.3s" fill="freeze" />
                [SYSTEM]: SAFA_YAVAS_NEURAL_LINK
              </text>
              <text x="0" y="255" opacity="0">
                <animate attributeName="opacity" values="0;1" dur="0.1s" begin="2.45s" fill="freeze" />
                [STATUS]: SENIOR_SOFTWARE_ENGINEER
              </text>
              <text x="0" y="275" opacity="0">
                <animate attributeName="opacity" values="0;1" dur="0.1s" begin="2.6s" fill="freeze" />
                [STACK ]: FULL_STACK_DEV_&amp;_AI_ARCH
              </text>
              <text x="0" y="295" opacity="0">
                <animate attributeName="opacity" values="0;1" dur="0.1s" begin="2.75s" fill="freeze" />
                &gt; INITIALIZING SAFAYVS_PROFILE...
              </text>
            </g>
          </g>

          <!-- Moving Scanline Effect -->
          <rect x="35" y="105" width="400" height="15" fill="url(#accent-grad)" opacity="0.15">
            <animateTransform attributeName="transform" type="translate" values="0,0; 0,440; 0,0" dur="4s" repeatCount="indefinite" />
          </rect>
        </g>
      </g>
    </g>

    <!-- ==================== RIGHT SIDE: TERMINAL & DETAILS ==================== -->
    <g transform="translate(0,0)">
      <!-- Main Terminal Window Glass -->
      <rect x="460" y="70" width="685" height="490" rx="16" fill="#0F172A" fill-opacity="0.75" stroke="rgba(255,255,255,0.08)" stroke-width="1" />
      <rect x="460" y="70" width="685" height="490" rx="16" fill="url(#glass-refl)" />

      <!-- Terminal Header Bar -->
      <path d="M 460 86 C 460 77.163 467.163 70 476 70 L 1129 70 C 1137.837 70 1145 77.163 1145 86 L 1145 105 L 460 105 Z" fill="rgba(255,255,255,0.03)" />
      <line x1="460" y1="105" x2="1145" y2="105" stroke="rgba(255,255,255,0.06)" stroke-width="1" />
      
      <!-- Terminal Controls -->
      <circle cx="483" cy="87" r="5" fill="#EF4444" opacity="0.8" />
      <circle cx="499" cy="87" r="5" fill="#F59E0B" opacity="0.8" />
      <circle cx="515" cy="87" r="5" fill="#10B981" opacity="0.8" />
      <text x="802" y="91" fill="#94A3B8" font-size="11" font-weight="500" text-anchor="middle" class="mono">safayvas_profile.sh</text>

      <!-- TERMINAL CONTENT -->
      <g transform="translate(490, 135)">

        <!-- 1. GREETING & NAME -->
        <g opacity="0">
          <animate attributeName="opacity" values="0;1" dur="0.4s" begin="0.2s" fill="freeze" />
          <text x="0" y="0" fill="#94A3B8" font-size="14" font-weight="600" class="mono">
            <tspan fill="#22D3EE">safayvas@kernel</tspan>:<tspan fill="#7C3AED">~</tspan>$ ./init_engineer.sh
          </text>
          
          <text x="0" y="32" fill="#F8FAFC" font-size="28" font-weight="800" letter-spacing="-0.5">
            Hi <tspan font-size="26">👋</tspan>, I'm <tspan fill="url(#accent-grad)">SAFA YAVAŞ</tspan>
          </text>
        </g>

        <!-- 2. ANIMATED TYPING TEXT ROLES -->
        <g transform="translate(0, 62)" class="mono" font-size="16" font-weight="600">
          <text x="0" y="0" fill="#10B981">&gt;</text>

          <!-- Phrase 1: Software Engineer -->
          <g opacity="0">
            <animate attributeName="opacity" values="0;1;1;0;0" keyTimes="0;0.05;0.3;0.35;1" dur="12s" repeatCount="indefinite" begin="0.8s" />
            <text x="20" y="0" fill="#22D3EE">Software Engineer</text>
            <rect x="195" y="-13" width="9" height="17" fill="#22D3EE">
              <animate attributeName="opacity" values="1;0;1" dur="0.8s" repeatCount="indefinite" />
            </rect>
          </g>

          <!-- Phrase 2: Full Stack Architecture -->
          <g opacity="0">
            <animate attributeName="opacity" values="0;1;1;0;0" keyTimes="0;0.05;0.3;0.35;1" dur="12s" repeatCount="indefinite" begin="3.8s" />
            <text x="20" y="0" fill="#7C3AED">Full Stack Architect</text>
            <rect x="220" y="-13" width="9" height="17" fill="#7C3AED">
              <animate attributeName="opacity" values="1;0;1" dur="0.8s" repeatCount="indefinite" />
            </rect>
          </g>

          <!-- Phrase 3: AI-Assisted Developer -->
          <g opacity="0">
            <animate attributeName="opacity" values="0;1;1;0;0" keyTimes="0;0.05;0.3;0.35;1" dur="12s" repeatCount="indefinite" begin="6.8s" />
            <text x="20" y="0" fill="#10B981">AI-Assisted Developer</text>
            <rect x="225" y="-13" width="9" height="17" fill="#10B981">
              <animate attributeName="opacity" values="1;0;1" dur="0.8s" repeatCount="indefinite" />
            </rect>
          </g>

          <!-- Phrase 4: Automation & Product Maker -->
          <g opacity="0">
            <animate attributeName="opacity" values="0;1;1;0;0" keyTimes="0;0.05;0.3;0.35;1" dur="12s" repeatCount="indefinite" begin="9.8s" />
            <text x="20" y="0" fill="#F59E0B">Automation &amp; Systems Lead</text>
            <rect x="260" y="-13" width="9" height="17" fill="#F59E0B">
              <animate attributeName="opacity" values="1;0;1" dur="0.8s" repeatCount="indefinite" />
            </rect>
          </g>
        </g>

        <!-- Horizontal Divider -->
        <line x1="0" y1="80" x2="625" y2="80" stroke="rgba(255,255,255,0.06)" stroke-width="1" />

        <!-- 3. SEQUENTIAL DETAILS LIST -->
        <g transform="translate(0, 108)" font-size="13" font-weight="500">
          
          <!-- Focus -->
          <g opacity="0">
            <animate attributeName="opacity" values="0;1" dur="0.4s" begin="1.0s" fill="freeze" />
            <animateTransform attributeName="transform" type="translate" values="-10,0; 0,0" dur="0.4s" begin="1.0s" fill="freeze" />
            <text x="0" y="0" fill="#94A3B8" class="mono" font-weight="600">🎯 Core Focus:</text>
            <text x="130" y="0" fill="#F8FAFC">Full Stack, AI Systems &amp; Software Architecture</text>
          </g>

          <!-- Philosophy -->
          <g opacity="0" transform="translate(0, 24)">
            <animate attributeName="opacity" values="0;1" dur="0.4s" begin="1.2s" fill="freeze" />
            <animateTransform attributeName="transform" type="translate" values="-10,24; 0,24" dur="0.4s" begin="1.2s" fill="freeze" />
            <text x="0" y="0" fill="#94A3B8" class="mono" font-weight="600">💡 Philosophy:</text>
            <text x="130" y="0" fill="#F8FAFC">Build products, not demos. Clean Architecture first.</text>
          </g>

          <!-- Current Stack -->
          <g opacity="0" transform="translate(0, 48)">
            <animate attributeName="opacity" values="0;1" dur="0.4s" begin="1.4s" fill="freeze" />
            <animateTransform attributeName="transform" type="translate" values="-10,48; 0,48" dur="0.4s" begin="1.4s" fill="freeze" />
            <text x="0" y="0" fill="#94A3B8" class="mono" font-weight="600">⚡ Stack Tech:</text>
            <text x="130" y="0" fill="#F8FAFC">Next.js, TypeScript, Supabase, Cloudflare, Docker</text>
          </g>

          <!-- Featured Work -->
          <g opacity="0" transform="translate(0, 72)">
            <animate attributeName="opacity" values="0;1" dur="0.4s" begin="1.6s" fill="freeze" />
            <animateTransform attributeName="transform" type="translate" values="-10,72; 0,72" dur="0.4s" begin="1.6s" fill="freeze" />
            <text x="0" y="0" fill="#94A3B8" class="mono" font-weight="600">🚀 Key Products:</text>
            <text x="130" y="0" fill="#22D3EE">HASILAT TUT • Stocker • Telegram Bot • Adet Takip</text>
          </g>

          <!-- GitHub Profile -->
          <g opacity="0" transform="translate(0, 96)">
            <animate attributeName="opacity" values="0;1" dur="0.4s" begin="1.8s" fill="freeze" />
            <animateTransform attributeName="transform" type="translate" values="-10,96; 0,96" dur="0.4s" begin="1.8s" fill="freeze" />
            <text x="0" y="0" fill="#94A3B8" class="mono" font-weight="600">🌐 Repository:</text>
            <text x="130" y="0" fill="#10B981">https://github.com/safayvs</text>
          </g>
        </g>

        <!-- Horizontal Divider -->
        <line x1="0" y1="230" x2="625" y2="230" stroke="rgba(255,255,255,0.06)" stroke-width="1" />

        <!-- 4. SKILLS SECTION (GLOWING PILLS) -->
        <g transform="translate(0, 248)" opacity="0">
          <animate attributeName="opacity" values="0;1" dur="0.5s" begin="2.0s" fill="freeze" />
          
          <text x="0" y="0" fill="#94A3B8" class="mono" font-size="12" font-weight="700" letter-spacing="1">PRIMARY TECH STACK</text>

          <!-- Skill Pills Grid -->
          <g transform="translate(0, 15)">
            
            <g class="pill-hover" transform="translate(0, 0)">
              <rect width="70" height="26" rx="13" fill="#0F172A" stroke="#22D3EE" stroke-width="1" stroke-opacity="0.4" />
              <text x="35" y="17" fill="#22D3EE" font-size="11" font-weight="600" text-anchor="middle" class="mono">React</text>
            </g>

            <g class="pill-hover" transform="translate(78, 0)">
              <rect width="76" height="26" rx="13" fill="#0F172A" stroke="#F8FAFC" stroke-width="1" stroke-opacity="0.4" />
              <text x="38" y="17" fill="#F8FAFC" font-size="11" font-weight="600" text-anchor="middle" class="mono">Next.js</text>
            </g>

            <g class="pill-hover" transform="translate(162, 0)">
              <rect width="94" height="26" rx="13" fill="#0F172A" stroke="#3178C6" stroke-width="1" stroke-opacity="0.6" />
              <text x="47" y="17" fill="#38BDF8" font-size="11" font-weight="600" text-anchor="middle" class="mono">TypeScript</text>
            </g>

            <g class="pill-hover" transform="translate(264, 0)">
              <rect width="84" height="26" rx="13" fill="#0F172A" stroke="#10B981" stroke-width="1" stroke-opacity="0.5" />
              <text x="42" y="17" fill="#10B981" font-size="11" font-weight="600" text-anchor="middle" class="mono">Supabase</text>
            </g>

            <g class="pill-hover" transform="translate(356, 0)">
              <rect width="92" height="26" rx="13" fill="#0F172A" stroke="#F59E0B" stroke-width="1" stroke-opacity="0.5" />
              <text x="46" y="17" fill="#F59E0B" font-size="11" font-weight="600" text-anchor="middle" class="mono">Cloudflare</text>
            </g>

            <g class="pill-hover" transform="translate(456, 0)">
              <rect width="74" height="26" rx="13" fill="#0F172A" stroke="#0284C7" stroke-width="1" stroke-opacity="0.5" />
              <text x="37" y="17" fill="#38BDF8" font-size="11" font-weight="600" text-anchor="middle" class="mono">Docker</text>
            </g>

            <g class="pill-hover" transform="translate(0, 34)">
              <rect width="58" height="26" rx="13" fill="#0F172A" stroke="#7C3AED" stroke-width="1" stroke-opacity="0.5" />
              <text x="29" y="17" fill="#A78BFA" font-size="11" font-weight="600" text-anchor="middle" class="mono">PWA</text>
            </g>

            <g class="pill-hover" transform="translate(66, 34)">
              <rect width="84" height="26" rx="13" fill="#0F172A" stroke="#6366F1" stroke-width="1" stroke-opacity="0.5" />
              <text x="42" y="17" fill="#818CF8" font-size="11" font-weight="600" text-anchor="middle" class="mono">PostgreSQL</text>
            </g>

            <g class="pill-hover" transform="translate(158, 34)">
              <rect width="72" height="26" rx="13" fill="#0F172A" stroke="#38BDF8" stroke-width="1" stroke-opacity="0.5" />
              <text x="36" y="17" fill="#38BDF8" font-size="11" font-weight="600" text-anchor="middle" class="mono">Python</text>
            </g>

            <g class="pill-hover" transform="translate(238, 34)">
              <rect width="88" height="26" rx="13" fill="#0F172A" stroke="#10B981" stroke-width="1" stroke-opacity="0.5" />
              <text x="44" y="17" fill="#34D399" font-size="11" font-weight="600" text-anchor="middle" class="mono">Automation</text>
            </g>

            <g class="pill-hover" transform="translate(334, 34)">
              <rect width="108" height="26" rx="13" fill="#0F172A" stroke="#EC4899" stroke-width="1" stroke-opacity="0.5" />
              <text x="54" y="17" fill="#F472B6" font-size="11" font-weight="600" text-anchor="middle" class="mono">Clean Architecture</text>
            </g>

          </g>
        </g>

        <!-- 5. SOCIAL ICONS BOTTOM -->
        <g transform="translate(0, 350)" opacity="0">
          <animate attributeName="opacity" values="0;1" dur="0.5s" begin="2.3s" fill="freeze" />

          <!-- GitHub Icon Link -->
          <g class="pill-hover" transform="translate(0, 0)">
            <circle cx="16" cy="16" r="16" fill="rgba(255,255,255,0.05)" stroke="rgba(255,255,255,0.15)" stroke-width="1" />
            <path d="M16 8C11.58 8 8 11.58 8 16C8 19.54 10.29 22.53 13.47 23.59C13.87 23.66 14.02 23.42 14.02 23.21C14.02 23.02 14.01 22.39 14.01 21.72C11.78 22.21 11.31 20.78 11.31 20.78C10.95 19.86 10.43 19.61 10.43 19.61C9.7 19.11 10.49 19.12 10.49 19.12C11.3 19.18 11.72 19.95 11.72 19.95C12.44 21.19 13.61 20.83 14.07 20.62C14.14 20.1 14.35 19.74 14.58 19.54C12.8 19.34 10.93 18.65 10.93 15.58C10.93 14.71 11.24 13.99 11.75 13.43C11.67 13.23 11.4 12.41 11.83 11.31C11.83 11.31 12.5 11.09 14.03 12.13C14.67 11.95 15.35 11.86 16.03 11.86C16.71 11.86 17.39 11.95 18.03 12.13C19.56 11.09 20.23 11.31 20.23 11.31C20.66 12.41 20.39 13.23 20.31 13.43C20.82 13.99 21.13 14.7 21.13 15.58C21.13 18.66 19.25 19.34 17.47 19.54C17.76 19.79 18.01 20.28 18.01 21.04C18.01 22.13 18 23.01 18 23.21C18 23.42 18.15 23.67 18.55 23.59C21.71 22.53 24 19.54 24 16C24 11.58 20.42 8 16 8Z" fill="#F8FAFC" />
          </g>

          <!-- LinkedIn Icon Link -->
          <g class="pill-hover" transform="translate(48, 0)">
            <circle cx="16" cy="16" r="16" fill="rgba(255,255,255,0.05)" stroke="rgba(255,255,255,0.15)" stroke-width="1" />
            <path d="M11.5 11H9.5V21H11.5V11ZM10.5 8C9.8 8 9.25 8.55 9.25 9.25C9.25 9.95 9.8 10.5 10.5 10.5C11.2 10.5 11.75 9.95 11.75 9.25C11.75 8.55 11.2 8 10.5 8ZM21.5 14.8C21.5 12.2 19.8 11 17.8 11C16.3 11 15.3 11.8 14.8 12.5V11H13V21H15V15.8C15 14.4 15.8 13.2 17.1 13.2C18.4 13.2 18.8 14.2 18.8 15.7V21H20.8V14.8H21.5Z" fill="#22D3EE" />
          </g>

          <!-- Twitter / X Icon Link -->
          <g class="pill-hover" transform="translate(96, 0)">
            <circle cx="16" cy="16" r="16" fill="rgba(255,255,255,0.05)" stroke="rgba(255,255,255,0.15)" stroke-width="1" />
            <path d="M18.25 9H20.5L15.5 14.7L21.3 22.4H16.7L13.1 17.7L9 22.4H6.75L12.1 16.3L6.5 9H11.2L14.5 13.3L18.25 9ZM17.4 21H18.7L10.4 10.3H9L17.4 21Z" fill="#F8FAFC" />
          </g>

          <!-- Portfolio / Globe Icon Link -->
          <g class="pill-hover" transform="translate(144, 0)">
            <circle cx="16" cy="16" r="16" fill="rgba(255,255,255,0.05)" stroke="rgba(255,255,255,0.15)" stroke-width="1" />
            <path d="M16 8C11.6 8 8 11.6 8 16C8 20.4 11.6 24 16 24C20.4 24 24 20.4 24 16C24 11.6 20.4 8 16 8ZM16 9.8C17.2 9.8 18.7 11.9 19.3 16H12.7C13.3 11.9 14.8 9.8 16 9.8ZM9.8 16C10.2 13.2 11.1 10.9 12.1 9.8C10.4 11 9.4 13.3 9.8 16ZM12.1 22.2C11.1 21.1 10.2 18.8 9.8 16H12.7C13.3 20.1 14.8 22.2 16 22.2C17.2 22.2 18.7 20.1 19.3 16H22.2C21.8 18.8 20.9 21.1 19.9 22.2C18.8 23.3 17.5 24 16 24C14.5 24 13.2 23.3 12.1 22.2Z" fill="#10B981" />
          </g>

        </g>
      </g>
    </g>
  </g>
</svg>
